<svg xmlns="http://www.w3.org/2000/svg" width="1200" height="720" viewBox="0 0 1200 720">
  <defs>
    <linearGradient id="bg" x1="0" x2="1" y1="0" y2="1">
      <stop offset="0" stop-color="#0b1220"/>
      <stop offset="1" stop-color="#111827"/>
    </linearGradient>
  </defs>
  <rect width="1200" height="720" fill="url(#bg)"/>
  <text x="60" y="55" fill="#e5e7eb" font-family="ui-sans-serif, system-ui, -apple-system, Segoe UI, Roboto, Arial" font-size="28" font-weight="700">
    Kanban (placeholder)
  </text>
  <rect x="60" y="80" width="1080" height="570" rx="20" fill="#0f172a" stroke="#1f2937" stroke-width="2"/>
  <g>
    <rect x="90" y="120" width="330" height="500" rx="16" fill="#111827" stroke="#243145"/>
    <rect x="435" y="120" width="330" height="500" rx="16" fill="#111827" stroke="#243145"/>
    <rect x="780" y="120" width="330" height="500" rx="16" fill="#111827" stroke="#243145"/>
  </g>
  <g fill="#334155">
    <rect x="115" y="185" width="280" height="70" rx="12"/>
    <rect x="115" y="270" width="280" height="70" rx="12"/>
    <rect x="460" y="185" width="280" height="70" rx="12"/>
    <rect x="460" y="270" width="280" height="70" rx="12"/>
    <rect x="805" y="185" width="280" height="70" rx="12"/>
  </g>
  <text x="110" y="160" fill="#93c5fd" font-family="ui-sans-serif, system-ui" font-size="18" font-weight="700">To do</text>
  <text x="455" y="160" fill="#fbbf24" font-family="ui-sans-serif, system-ui" font-size="18" font-weight="700">Doing</text>
  <text x="800" y="160" fill="#6ee7b7" font-family="ui-sans-serif, system-ui" font-size="18" font-weight="700">Done</text>
</svg>
